<svg width="100" height="60" viewBox="0 0 100 60" fill="none" xmlns="http://www.w3.org/2000/svg">
<path d="M69 25C69 35.4934 60.4934 44 50 44C39.5066 44 31 35.4934 31 25C31 14.5066 39.5066 6 50 6C60.4934 6 69 14.5066 69 25Z" fill="#B0907A"/>
<path d="M95.6783 22.2913C95.8855 22.2732 96.0533 22.3548 96.1816 22.5364C96.3258 22.7165 96.4126 22.9739 96.4419 23.3086C96.4921 23.8824 96.3998 24.3884 96.1651 24.8265C95.7788 25.5509 95.2358 26.1365 94.536 26.5832C93.8522 27.0285 93.0083 27.295 92.0041 27.3829C90.4739 27.5168 89.2467 27.1664 88.3225 26.3318C87.3968 25.4812 86.8657 24.2749 86.729 22.7129C86.6328 21.6131 86.7746 20.5727 87.1546 19.5919C87.5332 18.5951 88.1045 17.7822 88.8686 17.1532C89.6486 16.5229 90.5567 16.1623 91.5927 16.0717C92.5172 15.9908 93.2827 16.2049 93.8894 16.714C94.4947 17.2071 94.8385 17.9239 94.9207 18.8643C95.017 19.9641 94.7015 20.9473 93.9742 21.814C93.2615 22.6633 91.977 23.4021 90.1207 24.0303C90.5674 24.73 91.245 25.0401 92.1535 24.9606C92.8071 24.9035 93.3278 24.7053 93.7157 24.3662C94.1195 24.0257 94.569 23.4725 95.0642 22.7064C95.2345 22.4506 95.4392 22.3122 95.6783 22.2913ZM91.3912 18.4503C90.8015 18.5019 90.3294 18.8885 89.9749 19.6102C89.6364 20.3304 89.5097 21.1767 89.5948 22.149L89.5989 22.1968C90.5198 21.8914 91.2317 21.4918 91.7346 20.9981C92.2375 20.5044 92.4631 19.9626 92.4115 19.3729C92.385 19.0701 92.2765 18.8386 92.0858 18.6786C91.9097 18.5013 91.6781 18.4252 91.3912 18.4503Z" fill="#403F3D"/>
<path d="M83.2973 28.1446C81.7353 28.2813 80.4776 27.9497 79.5243 27.1497C78.5855 26.3324 78.0526 25.1985 77.9257 23.7481C77.8128 22.457 77.9688 21.303 78.3938 20.2861C78.8188 19.2692 79.4147 18.4622 80.1816 17.8651C80.9484 17.268 81.7782 16.9304 82.6708 16.8523C83.5474 16.7756 84.2478 16.9793 84.772 17.4635C85.3108 17.9303 85.6157 18.5702 85.6868 19.383C85.7454 20.0525 85.6435 20.6316 85.3811 21.1203C85.1346 21.6076 84.7723 21.8722 84.2941 21.9141C83.9913 21.9406 83.7379 21.8904 83.5341 21.7637C83.3462 21.6356 83.2411 21.444 83.2188 21.189C83.2091 21.0774 83.2138 20.9485 83.2332 20.8023C83.2525 20.6561 83.2673 20.5504 83.2777 20.4852C83.3365 20.2392 83.3568 20.0125 83.3387 19.8053C83.3205 19.5981 83.2508 19.4436 83.1295 19.3418C83.0241 19.2386 82.8758 19.1953 82.6845 19.2121C82.3179 19.2441 81.9898 19.4415 81.7003 19.8041C81.4094 20.1508 81.1928 20.6114 81.0503 21.186C80.9078 21.7606 80.8659 22.3826 80.9245 23.0521C81.0862 24.901 81.972 25.7551 83.5819 25.6142C84.2354 25.557 84.9179 25.2805 85.6294 24.7846C86.3554 24.2714 87.0467 23.5444 87.7032 22.6036C87.8749 22.3637 88.0803 22.2333 88.3194 22.2124C88.5266 22.1942 88.6944 22.2759 88.8227 22.4574C88.9669 22.6375 89.0537 22.895 89.083 23.2297C89.136 23.8354 89.0278 24.3427 88.7584 24.7518C88.0902 25.7418 87.2524 26.5378 86.245 27.1399C85.2522 27.7247 84.2696 28.0596 83.2973 28.1446Z" fill="#403F3D"/>
<path d="M69.548 29.3476C68.9423 29.4006 68.4841 29.1195 68.1733 28.5042C67.8784 27.8876 67.6696 26.8779 67.5469 25.4753C67.3656 23.4032 67.4882 21.4089 67.9148 19.4924C68.0179 19.0177 68.2197 18.6627 68.5203 18.4276C68.8355 18.1752 69.288 18.0232 69.8778 17.9716C70.1965 17.9437 70.4232 17.964 70.5577 18.0326C70.6921 18.1011 70.7692 18.2469 70.7887 18.4701C70.811 18.7251 70.7416 19.3094 70.5806 20.2229C70.477 20.8744 70.3983 21.4434 70.3445 21.93C70.2907 22.4165 70.2626 23.0132 70.2602 23.7201C70.6663 22.3033 71.1584 21.136 71.7366 20.2181C72.3148 19.3002 72.8987 18.6308 73.4883 18.2098C74.0938 17.7874 74.6595 17.5532 75.1855 17.5072C76.2215 17.4166 76.7849 17.8893 76.8755 18.9253C76.8936 19.1325 76.8658 19.6409 76.7921 20.4504C76.7204 21.0991 76.6915 21.5032 76.7054 21.6626C76.7542 22.2204 76.9779 22.4819 77.3764 22.4471C77.8227 22.408 78.3658 22.0072 79.0057 21.2445C79.1948 21.0191 79.4009 20.8967 79.6241 20.8772C79.8313 20.8591 79.9991 20.9408 80.1274 21.1223C80.2702 21.2864 80.3549 21.5199 80.3814 21.8228C80.433 22.4125 80.314 22.8887 80.0245 23.2513C79.6187 23.7526 79.1275 24.1971 78.5511 24.5848C77.9893 24.9552 77.3736 25.1697 76.7042 25.2282C75.8594 25.3021 75.1951 25.1434 74.7111 24.7521C74.2431 24.3594 73.977 23.7965 73.9129 23.0633C73.892 22.8242 73.895 22.583 73.9219 22.3397C73.9258 22.0182 73.923 21.8016 73.9132 21.69C73.8909 21.435 73.7921 21.3151 73.6167 21.3305C73.3777 21.3514 73.0826 21.6503 72.7315 22.2271C72.395 22.7865 72.0738 23.5213 71.768 24.4314C71.4621 25.3415 71.2322 26.2932 71.0782 27.2864C70.9684 28.0509 70.8058 28.5791 70.5904 28.8709C70.3896 29.1455 70.0421 29.3044 69.548 29.3476Z" fill="#403F3D"/>
<path d="M59.2454 30.2488C58.5282 30.3116 57.9098 30.0364 57.3904 29.4233C56.8856 28.7929 56.5899 27.9836 56.5034 26.9954C56.3989 25.8 56.383 24.7012 56.456 23.699C56.5275 22.6809 56.6978 21.5979 56.9667 20.4501C57.0843 19.958 57.2775 19.5958 57.5462 19.3635C57.815 19.1312 58.2602 18.9878 58.8818 18.9334C59.2325 18.9028 59.4765 18.9376 59.6137 19.038C59.767 19.1371 59.8533 19.2981 59.8728 19.5213C59.884 19.6488 59.834 20.0868 59.7228 20.8354C59.615 21.4391 59.5342 21.9842 59.4804 22.4707C59.3081 24.1722 59.2463 25.3019 59.2951 25.8598C59.3244 26.1945 59.3851 26.4301 59.4774 26.5666C59.5682 26.6871 59.7013 26.7397 59.8767 26.7244C60.1157 26.7035 60.3897 26.4386 60.6985 25.9297C61.0233 25.4195 61.3424 24.6608 61.6558 23.6536C61.9851 22.6451 62.279 21.4148 62.5375 19.9627C62.6231 19.4734 62.7844 19.114 63.0213 18.8845C63.2742 18.6535 63.6636 18.5151 64.1896 18.4691C64.5562 18.437 64.8154 18.4625 64.9672 18.5456C65.1176 18.6127 65.2033 18.7658 65.2242 19.0049C65.2591 19.4034 65.1554 20.5127 64.9131 22.3327C64.6453 24.412 64.5323 25.6907 64.5741 26.1688C64.6006 26.4717 64.6853 26.7052 64.8281 26.8694C64.9696 27.0176 65.1439 27.0827 65.3511 27.0645C65.6699 27.0366 66.0278 26.8126 66.4246 26.3924C66.8361 25.9549 67.37 25.2657 68.0265 24.3249C68.1983 24.0851 68.4037 23.9547 68.6428 23.9337C68.85 23.9156 69.0178 23.9973 69.1461 24.1788C69.2903 24.3589 69.3771 24.6163 69.4064 24.9511C69.4621 25.5886 69.3539 26.096 69.0818 26.4731C68.4703 27.3779 67.7898 28.1361 67.0403 28.7477C66.3067 29.358 65.4378 29.707 64.4336 29.7949C63.6685 29.8618 63.0769 29.6165 62.6587 29.0588C62.2564 28.4997 62.0086 27.6862 61.9152 26.6183C61.739 27.7259 61.4058 28.5982 60.9155 29.2354C60.4237 29.8566 59.867 30.1944 59.2454 30.2488Z" fill="#403F3D"/>
<path d="M57.5607 22.8796C57.7679 22.8614 57.9363 22.9511 58.066 23.1485C58.1958 23.346 58.2745 23.6041 58.3024 23.9229C58.3694 24.688 58.178 25.1625 57.7283 25.3463C56.8013 25.7647 55.766 26.048 54.6226 26.1963C54.4369 27.5616 53.9333 28.6898 53.1118 29.5808C52.2889 30.4559 51.3117 30.9429 50.18 31.0419C49.2236 31.1256 48.3826 30.9663 47.6567 30.564C46.9469 30.1603 46.3831 29.5913 45.9655 28.8569C45.5479 28.1225 45.3001 27.309 45.222 26.4164C45.116 25.205 45.253 24.1089 45.633 23.1281C46.0115 22.1313 46.5842 21.3343 47.3511 20.7372C48.1166 20.1242 48.9934 19.7744 49.9817 19.688C51.193 19.582 52.2023 19.9193 53.0094 20.6999C53.831 21.4632 54.3593 22.453 54.5942 23.6691C55.3392 23.5558 56.2178 23.3183 57.2301 22.9567C57.3549 22.9136 57.465 22.8879 57.5607 22.8796ZM50.1495 28.4908C50.6596 28.4462 51.0798 28.2007 51.4101 27.7542C51.7564 27.3063 51.9591 26.6863 52.0183 25.8941C51.4949 25.6026 51.074 25.1977 50.7557 24.6795C50.4532 24.1599 50.2755 23.5972 50.2225 22.9916C50.2002 22.7365 50.2018 22.4794 50.2273 22.2202L50.1078 22.2307C49.4702 22.2864 48.9634 22.644 48.5875 23.3032C48.226 23.9452 48.0941 24.824 48.1917 25.9398C48.2684 26.8164 48.4944 27.4712 48.8695 27.9042C49.2606 28.3357 49.6873 28.5313 50.1495 28.4908Z" fill="#403F3D"/>
<path d="M40.3097 32.4354C39.4809 32.508 38.8266 32.3725 38.3468 32.029C37.883 31.6841 37.6301 31.2726 37.5883 30.7944C37.552 30.38 37.6721 30.0081 37.9484 29.6787C38.2248 29.3494 38.6578 29.1589 39.2476 29.1073C39.4548 29.0892 39.696 29.0922 39.9711 29.1163C40.2608 29.1231 40.4781 29.1282 40.6229 29.1316C40.5707 28.7185 40.4409 28.3364 40.2335 27.9851C40.0421 27.6325 39.8042 27.3 39.5199 26.9876C39.2342 26.6592 38.9686 26.3773 38.7231 26.1418C38.3113 27.1254 37.8855 27.9497 37.4458 28.6145C37.022 29.278 36.5476 29.9137 36.0226 30.5218C35.7608 30.8338 35.4705 31.0038 35.1517 31.0316C34.8967 31.054 34.6818 30.9844 34.5071 30.823C34.331 30.6457 34.231 30.4216 34.2073 30.1506C34.1794 29.8318 34.2652 29.5272 34.4647 29.2367L34.742 28.827C35.5238 27.6664 36.1072 26.7159 36.4921 25.9756C36.7227 25.4896 36.9878 24.8481 37.2874 24.0509C37.5857 23.2379 37.8739 22.4016 38.1521 21.542C38.3935 20.8142 38.9925 20.4085 39.9488 20.3248C40.3951 20.2858 40.7094 20.2984 40.8917 20.3628C41.074 20.4271 41.1728 20.547 41.1882 20.7223C41.1965 20.8179 41.1779 20.9722 41.1323 21.1849C41.0866 21.3977 41.0171 21.6126 40.9237 21.8296C40.687 22.4285 40.586 22.9272 40.6209 23.3257C40.6418 23.5647 40.7445 23.8208 40.929 24.0937C41.1294 24.3653 41.4238 24.7009 41.8121 25.1006C42.3807 25.7254 42.8135 26.2657 43.1104 26.7216C43.4218 27.1601 43.6019 27.6583 43.6507 28.2162C43.6646 28.3756 43.6682 28.6001 43.6614 28.8898C44.4159 28.5187 45.262 27.6335 46.1997 26.2345C46.3714 25.9946 46.5768 25.8642 46.8159 25.8433C47.0231 25.8252 47.1909 25.9069 47.3192 26.0884C47.4634 26.2685 47.5502 26.5259 47.5795 26.8606C47.6325 27.4663 47.5243 27.9737 47.2549 28.3827C46.5444 29.4407 45.8386 30.185 45.1375 30.6158C44.4509 31.0292 43.575 31.2985 42.5099 31.4238C41.9197 32.0215 41.1863 32.3587 40.3097 32.4354Z" fill="#403F3D"/>
<path d="M36.617 26.7357C36.8242 26.7175 36.9919 26.7992 37.1203 26.9807C37.2645 27.1608 37.3513 27.4183 37.3806 27.753C37.4363 28.3905 37.3281 28.8979 37.056 29.2751C36.529 30.0439 35.75 30.7786 34.7192 31.4791C33.7042 32.1782 32.5831 32.5815 31.3558 32.6888C29.6822 32.8353 28.3434 32.4947 27.3395 31.667C26.3355 30.8394 25.7645 29.6365 25.6265 28.0586C25.5302 26.9588 25.6721 25.9185 26.0521 24.9376C26.4306 23.9408 27.002 23.1279 27.766 22.4989C28.5461 21.8686 29.4541 21.508 30.4902 21.4174C31.4146 21.3365 32.1802 21.5506 32.7869 22.0597C33.3922 22.5528 33.7359 23.2696 33.8182 24.21C33.9144 25.3098 33.5989 26.293 32.8717 27.1597C32.159 28.009 30.8825 28.7471 29.0421 29.3739C29.5047 30.0722 30.2939 30.3726 31.4096 30.275C32.1269 30.2122 32.9182 29.894 33.7835 29.3204C34.6633 28.7295 35.4024 27.9983 36.0007 27.1269C36.1725 26.887 36.3779 26.7566 36.617 26.7357ZM30.2887 23.796C29.6989 23.8476 29.2268 24.2342 28.8724 24.9559C28.5339 25.6761 28.4072 26.5224 28.4922 27.4947L28.4964 27.5425C29.4173 27.2371 30.1292 26.8375 30.6321 26.3438C31.1349 25.8501 31.3606 25.3083 31.309 24.7186C31.2825 24.4158 31.1739 24.1843 30.9832 24.0243C30.8071 23.847 30.5756 23.7709 30.2887 23.796Z" fill="#403F3D"/>
<path d="M27.6906 27.5167C27.8978 27.4986 28.0656 27.5803 28.1939 27.7618C28.3382 27.9419 28.4249 28.1993 28.4542 28.5341C28.5086 29.1557 28.4004 29.6631 28.1296 30.0561C27.4454 31.0476 26.7351 31.8324 25.9987 32.4108C25.261 32.9733 24.3581 33.3012 23.2902 33.3946C22.2541 33.4853 21.3451 33.2837 20.5631 32.79C19.797 32.2949 19.028 31.3985 18.256 30.1009C17.6351 29.063 17.151 28.3023 16.8035 27.8188C16.4547 27.3193 16.119 26.9712 15.7967 26.7745C15.4903 26.5765 15.1198 26.4724 14.6852 26.4622C14.6508 26.8025 14.5595 27.8705 14.4114 29.6663C14.3537 30.4744 14.3165 30.9675 14.3 31.1456C14.2256 32.1319 13.9724 32.9089 13.5402 33.4767C13.1067 34.0286 12.4038 34.3471 11.4315 34.4321C10.3636 34.5256 9.38799 34.2977 8.50477 33.7486C7.63609 33.1822 6.9298 32.3606 6.38589 31.2839C5.84059 30.1913 5.50518 28.9277 5.37968 27.4932C5.1454 24.8154 5.40544 22.4638 6.15978 20.4383C6.93006 18.4115 8.10738 16.8148 9.69174 15.6483C11.2906 14.4644 13.1899 13.7763 15.3895 13.5838C16.9196 13.45 18.223 13.5688 19.2994 13.9404C20.3759 14.312 21.1968 14.8826 21.762 15.6523C22.3432 16.4206 22.6784 17.3148 22.7676 18.3349C22.8457 19.2275 22.7073 20.1229 22.3522 21.0213C22.0117 21.9023 21.4476 22.7066 20.66 23.434C19.8724 24.1614 18.8869 24.7375 17.7034 25.1622C18.4866 25.3025 19.1057 25.5856 19.5605 26.0116C20.0154 26.4376 20.4891 27.0787 20.9816 27.9351C21.5115 28.8524 22.0112 29.5153 22.4806 29.924C22.966 30.3312 23.4955 30.5098 24.0693 30.4596C24.5794 30.4149 25.0509 30.205 25.4838 29.8299C25.9154 29.4388 26.4456 28.7981 27.0744 27.9079C27.2461 27.6681 27.4515 27.5377 27.6906 27.5167ZM11.3837 26.727C10.8418 26.7744 10.4561 26.6797 10.2266 26.4428C10.013 26.2045 9.89225 25.9259 9.86436 25.6071C9.8309 25.2246 9.92394 24.9113 10.1435 24.6672C10.379 24.4218 10.6562 24.2851 10.9749 24.2572L11.5727 24.2049C11.691 22.6206 11.8123 21.2528 11.9364 20.1016C12.053 19.0474 12.6771 18.4708 13.8088 18.3718C14.7173 18.2923 15.2071 18.659 15.2782 19.4719C15.2936 19.6473 15.2975 19.7835 15.2899 19.8805L14.9199 23.9121C15.7764 23.789 16.5393 23.5134 17.2085 23.0855C17.8937 22.6561 18.4149 22.0966 18.7722 21.4068C19.1454 20.7156 19.2957 19.9556 19.2232 19.1268C19.1353 18.1226 18.7236 17.3636 17.988 16.8498C17.2524 16.3359 16.2232 16.1369 14.9002 16.2526C13.3382 16.3893 12.0016 16.8997 10.8904 17.7839C9.79381 18.6508 8.98568 19.8779 8.46605 21.4653C7.94503 23.0366 7.78003 24.9142 7.97108 27.0978C8.06033 28.1179 8.24063 28.9855 8.51198 29.7006C8.78334 30.4157 9.08648 30.9432 9.42139 31.2834C9.75631 31.6235 10.0592 31.7817 10.3302 31.7579C10.5374 31.7398 10.6957 31.6216 10.8051 31.4032C10.9304 31.1834 11.0127 30.839 11.052 30.3698L11.3837 26.727Z" fill="#403F3D"/>
<path d="M78.4032 54.0001V48.1819H82.1873V49.0654H79.4572V50.645H81.9913V51.5285H79.4572V53.1165H82.21V54.0001H78.4032Z" fill="#403F3D"/>
<path d="M75.9698 49.7813C75.9433 49.5332 75.8316 49.34 75.6346 49.2017C75.4395 49.0635 75.1857 48.9943 74.8732 48.9943C74.6535 48.9943 74.4651 49.0275 74.3079 49.0938C74.1507 49.1601 74.0304 49.25 73.9471 49.3637C73.8638 49.4773 73.8211 49.607 73.8192 49.7529C73.8192 49.8741 73.8467 49.9792 73.9016 50.0682C73.9585 50.1572 74.0352 50.233 74.1317 50.2955C74.2283 50.3561 74.3353 50.4072 74.4528 50.4489C74.5702 50.4906 74.6886 50.5256 74.8079 50.554L75.3533 50.6904C75.573 50.7415 75.7842 50.8106 75.9869 50.8977C76.1914 50.9849 76.3742 51.0947 76.5352 51.2273C76.698 51.3599 76.8268 51.5199 76.9215 51.7074C77.0162 51.8949 77.0636 52.1146 77.0636 52.3665C77.0636 52.7074 76.9764 53.0076 76.8022 53.2671C76.628 53.5246 76.3761 53.7263 76.0465 53.8722C75.7189 54.0161 75.3221 54.0881 74.8562 54.0881C74.4035 54.0881 74.0105 54.018 73.6772 53.8779C73.3458 53.7377 73.0863 53.5332 72.8988 53.2642C72.7132 52.9953 72.6128 52.6676 72.5977 52.2813H73.6346C73.6497 52.4839 73.7122 52.6525 73.8221 52.787C73.9319 52.9214 74.0749 53.0218 74.2511 53.0881C74.4291 53.1544 74.628 53.1875 74.8477 53.1875C75.0768 53.1875 75.2776 53.1534 75.4499 53.0852C75.6242 53.0152 75.7605 52.9186 75.859 52.7955C75.9575 52.6705 76.0077 52.5246 76.0096 52.358C76.0077 52.2065 75.9632 52.0815 75.8761 51.983C75.7889 51.8826 75.6668 51.7993 75.5096 51.733C75.3543 51.6648 75.1725 51.6042 74.9641 51.5512L74.3022 51.3807C73.823 51.2576 73.4442 51.071 73.1658 50.821C72.8893 50.5692 72.7511 50.2349 72.7511 49.8182C72.7511 49.4754 72.8439 49.1752 73.0295 48.9176C73.217 48.6601 73.4717 48.4602 73.7937 48.3182C74.1156 48.1743 74.4802 48.1023 74.8874 48.1023C75.3003 48.1023 75.6621 48.1743 75.9727 48.3182C76.2852 48.4602 76.5304 48.6582 76.7085 48.912C76.8865 49.1638 76.9783 49.4536 76.984 49.7813H75.9698Z" fill="#403F3D"/>
<path d="M70.2083 48.1819H71.2622V51.983C71.2622 52.3997 71.1638 52.7662 70.9668 53.0825C70.7717 53.3987 70.4971 53.6459 70.1429 53.8239C69.7888 54.0001 69.3749 54.0881 68.9014 54.0881C68.4261 54.0881 68.0113 54.0001 67.6571 53.8239C67.303 53.6459 67.0283 53.3987 66.8333 53.0825C66.6382 52.7662 66.5406 52.3997 66.5406 51.983V48.1819H67.5946V51.895C67.5946 52.1374 67.6477 52.3533 67.7537 52.5427C67.8617 52.7321 68.0132 52.8807 68.2083 52.9887C68.4033 53.0948 68.6344 53.1478 68.9014 53.1478C69.1685 53.1478 69.3996 53.0948 69.5946 52.9887C69.7916 52.8807 69.9431 52.7321 70.0492 52.5427C70.1552 52.3533 70.2083 52.1374 70.2083 51.895V48.1819Z" fill="#403F3D"/>
<path d="M65.1442 51.0909C65.1442 51.7178 65.0268 52.2548 64.7919 52.7017C64.559 53.1468 64.2408 53.4877 63.8374 53.7245C63.4359 53.9612 62.9804 54.0796 62.4709 54.0796C61.9614 54.0796 61.505 53.9612 61.1016 53.7245C60.7001 53.4858 60.3819 53.144 60.147 52.6989C59.9141 52.2519 59.7976 51.7159 59.7976 51.0909C59.7976 50.464 59.9141 49.9281 60.147 49.483C60.3819 49.036 60.7001 48.6942 61.1016 48.4574C61.505 48.2207 61.9614 48.1023 62.4709 48.1023C62.9804 48.1023 63.4359 48.2207 63.8374 48.4574C64.2408 48.6942 64.559 49.036 64.7919 49.483C65.0268 49.9281 65.1442 50.464 65.1442 51.0909ZM64.0845 51.0909C64.0845 50.6496 64.0154 50.2775 63.8772 49.9745C63.7408 49.6695 63.5514 49.4394 63.309 49.2841C63.0665 49.1269 62.7872 49.0483 62.4709 49.0483C62.1546 49.0483 61.8753 49.1269 61.6328 49.2841C61.3904 49.4394 61.2001 49.6695 61.0618 49.9745C60.9254 50.2775 60.8573 50.6496 60.8573 51.0909C60.8573 51.5322 60.9254 51.9053 61.0618 52.2102C61.2001 52.5133 61.3904 52.7434 61.6328 52.9006C61.8753 53.0559 62.1546 53.1335 62.4709 53.1335C62.7872 53.1335 63.0665 53.0559 63.309 52.9006C63.5514 52.7434 63.7408 52.5133 63.8772 52.2102C64.0154 51.9053 64.0845 51.5322 64.0845 51.0909Z" fill="#403F3D"/>
<path d="M53.5923 54.0001V48.1819H54.6463V50.645H57.3423V48.1819H58.3991V54.0001H57.3423V51.5285H54.6463V54.0001H53.5923Z" fill="#403F3D"/>
<path d="M45.9485 54.0001V48.1819H49.7326V49.0654H47.0025V50.645H49.5366V51.5285H47.0025V53.1165H49.7553V54.0001H45.9485Z" fill="#403F3D"/>
<path d="M40.6891 54.0001V48.1819H44.4732V49.0654H41.7431V50.645H44.2772V51.5285H41.7431V53.1165H44.4959V54.0001H40.6891Z" fill="#403F3D"/>
<path d="M35.6017 54.0001V48.1819H39.329V49.0654H36.6557V50.645H39.0733V51.5285H36.6557V54.0001H35.6017Z" fill="#403F3D"/>
<path d="M30.5142 54.0001V48.1819H34.2414V49.0654H31.5681V50.645H33.9858V51.5285H31.5681V54.0001H30.5142Z" fill="#403F3D"/>
<path d="M29.1177 51.0909C29.1177 51.7178 29.0003 52.2548 28.7654 52.7017C28.5325 53.1468 28.2143 53.4877 27.8109 53.7245C27.4094 53.9612 26.9539 54.0796 26.4444 54.0796C25.9349 54.0796 25.4785 53.9612 25.0751 53.7245C24.6736 53.4858 24.3554 53.144 24.1205 52.6989C23.8876 52.2519 23.7711 51.7159 23.7711 51.0909C23.7711 50.464 23.8876 49.9281 24.1205 49.483C24.3554 49.036 24.6736 48.6942 25.0751 48.4574C25.4785 48.2207 25.9349 48.1023 26.4444 48.1023C26.9539 48.1023 27.4094 48.2207 27.8109 48.4574C28.2143 48.6942 28.5325 49.036 28.7654 49.483C29.0003 49.9281 29.1177 50.464 29.1177 51.0909ZM28.0581 51.0909C28.0581 50.6496 27.9889 50.2775 27.8507 49.9745C27.7143 49.6695 27.5249 49.4394 27.2825 49.2841C27.0401 49.1269 26.7607 49.0483 26.4444 49.0483C26.1281 49.0483 25.8488 49.1269 25.6063 49.2841C25.3639 49.4394 25.1736 49.6695 25.0353 49.9745C24.899 50.2775 24.8308 50.6496 24.8308 51.0909C24.8308 51.5322 24.899 51.9053 25.0353 52.2102C25.1736 52.5133 25.3639 52.7434 25.6063 52.9006C25.8488 53.0559 26.1281 53.1335 26.4444 53.1335C26.7607 53.1335 27.0401 53.0559 27.2825 52.9006C27.5249 52.7434 27.7143 52.5133 27.8507 52.2102C27.9889 51.9053 28.0581 51.5322 28.0581 51.0909Z" fill="#403F3D"/>
<path d="M22.5536 50.1449H21.4911C21.4608 49.9707 21.4049 49.8163 21.3235 49.6818C21.2421 49.5455 21.1407 49.4299 21.0195 49.3352C20.8983 49.2406 20.7601 49.1695 20.6048 49.1222C20.4513 49.0729 20.2856 49.0483 20.1076 49.0483C19.7913 49.0483 19.511 49.1279 19.2667 49.287C19.0224 49.4442 18.8311 49.6752 18.6928 49.9801C18.5546 50.2832 18.4854 50.6534 18.4854 51.0909C18.4854 51.536 18.5546 51.911 18.6928 52.2159C18.833 52.519 19.0243 52.7481 19.2667 52.9034C19.511 53.0568 19.7904 53.1335 20.1048 53.1335C20.279 53.1335 20.4419 53.1108 20.5934 53.0654C20.7468 53.018 20.8841 52.9489 21.0053 52.858C21.1284 52.7671 21.2317 52.6553 21.315 52.5227C21.4002 52.3902 21.4589 52.2387 21.4911 52.0682L22.5536 52.0739C22.5138 52.3504 22.4277 52.6099 22.2951 52.8523C22.1644 53.0947 21.993 53.3087 21.7809 53.4943C21.5688 53.6781 21.3207 53.822 21.0366 53.9262C20.7525 54.0284 20.4371 54.0796 20.0906 54.0796C19.5792 54.0796 19.1228 53.9612 18.7212 53.7245C18.3197 53.4877 18.0034 53.1459 17.7724 52.6989C17.5413 52.2519 17.4258 51.7159 17.4258 51.0909C17.4258 50.464 17.5423 49.9281 17.7752 49.483C18.0082 49.036 18.3254 48.6942 18.7269 48.4574C19.1284 48.2207 19.583 48.1023 20.0906 48.1023C20.4144 48.1023 20.7156 48.1477 20.994 48.2387C21.2724 48.3296 21.5205 48.4631 21.7383 48.6392C21.9561 48.8135 22.1351 49.0275 22.2752 49.2813C22.4173 49.5332 22.5101 49.821 22.5536 50.1449Z" fill="#403F3D"/>
</svg>
